<svg xmlns="http://www.w3.org/2000/svg" version="1.1" xmlns:xlink="http://www.w3.org/1999/xlink" xmlns:svgjs="http://svgjs.dev/svgjs" width="1500" height="568" viewBox="0 0 1500 568"><g transform="matrix(1,0,0,1,-0.9090909090909918,-0.5999696627186495)"><svg viewBox="0 0 396 150" data-background-color="#fbeaab" preserveAspectRatio="xMidYMid meet" height="568" width="1500" xmlns="http://www.w3.org/2000/svg" xmlns:xlink="http://www.w3.org/1999/xlink"><g id="tight-bounds" transform="matrix(1,0,0,1,0.2400000000000091,0.15844269261936006)"><svg viewBox="0 0 395.52 149.68311461476128" height="149.68311461476128" width="395.52"><g><svg viewBox="0 0 675.8841431298877 255.78591136329564" height="149.68311461476128" width="395.52"><g transform="matrix(1,0,0,1,0,1.7807544244017635)"><svg viewBox="0 0 395.52 252.2244025144921" height="252.2244025144921" width="395.52"><g id="textblocktransform"><svg viewBox="0 0 395.52 252.2244025144921" height="252.2244025144921" width="395.52" id="textblock"><g><svg viewBox="0 0 395.52 152.20853932584268" height="152.20853932584268" width="395.52"><g transform="matrix(1,0,0,1,0,0)"><svg width="395.52" viewBox="-0.1 -33.45 86.91 33.45" height="152.20853932584268" data-palette-color="#ffa96a"><path d="M22.85-28.66L22.85-31.25 8.74-31.25 8.74-28.66 14.5-28.66 14.5-11.06 17.11-11.06 17.11-28.66 22.85-28.66ZM10.69-33.45L18.21-33.45Q20.68-33.45 22.68-32.71 24.68-31.98 26.09-30.71 27.49-29.44 28.25-27.75 29-26.05 29-24.15L29-24.15 29-9.3Q29-7.4 28.25-5.7 27.49-4 26.09-2.73 24.68-1.46 22.68-0.73 20.68 0 18.21 0L18.21 0 10.69 0Q8.23 0 6.23-0.73 4.22-1.46 2.82-2.73 1.42-4 0.66-5.7-0.1-7.4-0.1-9.3L-0.1-9.3-0.1-24.15Q-0.1-26.05 0.66-27.75 1.42-29.44 2.82-30.71 4.22-31.98 6.23-32.71 8.23-33.45 10.69-33.45L10.69-33.45ZM43.41-13.65L37.64-13.65 37.64-11.06 51.76-11.06 51.76-13.65 46.02-13.65 46.02-28.66 51.76-28.66 51.76-31.25 37.64-31.25 37.64-28.66 43.41-28.66 43.41-13.65ZM39.6-33.45L47.12-33.45Q49.58-33.45 51.58-32.71 53.59-31.98 54.99-30.71 56.39-29.44 57.15-27.75 57.91-26.05 57.91-24.15L57.91-24.15 57.91-9.3Q57.91-7.4 57.15-5.7 56.39-4 54.99-2.73 53.59-1.46 51.58-0.73 49.58 0 47.12 0L47.12 0 39.6 0Q37.13 0 35.13-0.73 33.13-1.46 31.72-2.73 30.32-4 29.56-5.7 28.81-7.4 28.81-9.3L28.81-9.3 28.81-24.15Q28.81-26.05 29.56-27.75 30.32-29.44 31.72-30.71 33.13-31.98 35.13-32.71 37.13-33.45 39.6-33.45L39.6-33.45ZM76.61-11.35L79.02-11.08 79.02-16.65 79.02-27.34 79.02-29.39 77.36-30.96 74.92-31.25 69.36-31.25 66.5-30.91 67.11-28.25 69.4-28.71 74.85-28.71 76.31-28.39 76.66-27.1 76.66-21.41 74.92-21.7 69.36-21.7 66.91-21.34 65.35-19.8 65.01-17.8 65.01-14.94 65.35-12.89 66.91-11.35 69.36-11.06 74.7-11.06 76.61-11.35ZM76.66-15.21L76.66-13.89 74.75-13.65 69.5-13.65 67.96-13.89 67.62-15.36 67.62-17.46 67.82-18.85 69.5-19.09 74.8-19.09 76.66-18.9 76.66-15.21ZM68.5-33.45L76.02-33.45Q78.49-33.45 80.49-32.71 82.49-31.98 83.89-30.71 85.3-29.44 86.05-27.75 86.81-26.05 86.81-24.15L86.81-24.15 86.81-9.3Q86.81-7.4 86.05-5.7 85.3-4 83.89-2.73 82.49-1.46 80.49-0.73 78.49 0 76.02 0L76.02 0 68.5 0Q66.04 0 64.03-0.73 62.03-1.46 60.63-2.73 59.22-4 58.47-5.7 57.71-7.4 57.71-9.3L57.71-9.3 57.71-24.15Q57.71-26.05 58.47-27.75 59.22-29.44 60.63-30.71 62.03-31.98 64.03-32.71 66.04-33.45 68.5-33.45L68.5-33.45Z" opacity="1" transform="matrix(1,0,0,1,0,0)" fill="#ffa96a" class="wordmark-text-0" data-fill-palette-color="primary" id="text-0"></path></svg></g></svg></g><g transform="matrix(1,0,0,1,163.310208,188.14132245573032)"><svg viewBox="0 0 232.209792 64.08308005876181" height="64.08308005876181" width="232.209792"><g transform="matrix(1,0,0,1,0,0)"><svg width="232.209792" viewBox="1.5 -38.6 142.94 39.45" height="64.08308005876181" data-palette-color="#ceb700"><path d="M34.15-37.9L20.2-14.65 20.2 0 15.4 0 15.4-14.65 1.5-37.9 6.5-37.9 17.8-18.75 29.15-37.9 34.15-37.9ZM56.55 0.85Q50.7 0.85 46.62-1.73 42.55-4.3 40.5-8.78 38.45-13.25 38.45-18.9L38.45-18.9Q38.45-24.45 40.5-28.9 42.55-33.35 46.62-35.98 50.7-38.6 56.55-38.6L56.55-38.6Q62.35-38.6 66.4-35.98 70.45-33.35 72.52-28.88 74.6-24.4 74.6-18.9L74.6-18.9Q74.6-13.25 72.55-8.78 70.5-4.3 66.42-1.73 62.35 0.85 56.55 0.85L56.55 0.85ZM56.55-3.4Q60.65-3.4 63.6-5.45 66.55-7.5 68.07-11.05 69.6-14.6 69.6-19.05L69.6-19.05Q69.6-23.35 68.05-26.83 66.5-30.3 63.55-32.33 60.6-34.35 56.55-34.35L56.55-34.35Q52.35-34.35 49.4-32.3 46.45-30.25 44.95-26.75 43.45-23.25 43.45-18.9L43.45-18.9Q43.45-14.45 44.95-10.95 46.45-7.45 49.4-5.43 52.35-3.4 56.55-3.4L56.55-3.4ZM87.65-4.35L103.5-4.35 103.5 0 82.8 0 82.8-37.9 87.65-37.9 87.65-4.35ZM126.39 0.85Q120.54 0.85 116.47-1.73 112.39-4.3 110.34-8.78 108.29-13.25 108.29-18.9L108.29-18.9Q108.29-24.45 110.34-28.9 112.39-33.35 116.47-35.98 120.54-38.6 126.39-38.6L126.39-38.6Q132.19-38.6 136.24-35.98 140.29-33.35 142.37-28.88 144.44-24.4 144.44-18.9L144.44-18.9Q144.44-13.25 142.39-8.78 140.34-4.3 136.27-1.73 132.19 0.85 126.39 0.85L126.39 0.85ZM126.39-3.4Q130.49-3.4 133.44-5.45 136.39-7.5 137.92-11.05 139.44-14.6 139.44-19.05L139.44-19.05Q139.44-23.35 137.89-26.83 136.34-30.3 133.39-32.33 130.44-34.35 126.39-34.35L126.39-34.35Q122.19-34.35 119.24-32.3 116.29-30.25 114.79-26.75 113.29-23.25 113.29-18.9L113.29-18.9Q113.29-14.45 114.79-10.95 116.29-7.45 119.24-5.43 122.19-3.4 126.39-3.4L126.39-3.4Z" opacity="1" transform="matrix(1,0,0,1,0,0)" fill="#ceb700" class="slogan-text-1" data-fill-palette-color="secondary" id="text-1"></path></svg></g></svg></g></svg></g></svg></g><g transform="matrix(1,0,0,1,431.4527831298876,0)"><svg viewBox="0 0 244.43135999999998 255.78591136329564" height="255.78591136329564" width="244.43135999999998"><g><svg xmlns="http://www.w3.org/2000/svg" xmlns:xlink="http://www.w3.org/1999/xlink" version="1.1" x="0" y="0" viewBox="6.4531820811854725 4.400000000000001 87.15155542847009 91.2" enable-background="new 0 0 100 100" xml:space="preserve" height="255.78591136329564" width="244.43135999999998" class="icon-icon-0" data-fill-palette-color="accent" id="icon-0"><path d="M52.9 94.4l8.1-8.1c0.4-0.4 0.9-0.6 1.4-0.5l11.3 1.8c0.2 0 0.4 0.1 0.7 0.1 2 0 3.7-1.5 4.1-3.5l1.8-11.3c0.1-0.5 0.4-1 0.9-1.2l10.2-5.2c1-0.5 1.7-1.3 2-2.4 0.3-1 0.3-2.2-0.2-3.1l-5.2-10.2c-0.2-0.5-0.2-1 0-1.5L93.1 39c0.5-1 0.6-2.1 0.2-3.1-0.3-1-1.1-1.9-2-2.4l-10.2-5.2c-0.5-0.2-0.8-0.7-0.9-1.2l-1.8-11.3c-0.3-2-2-3.5-4.1-3.5-0.2 0-0.4 0-0.7 0.1l-11.3 1.8c-0.5 0.1-1.1-0.1-1.4-0.5l-8.1-8.1c-0.8-0.8-1.8-1.2-2.9-1.2-1.1 0-2.1 0.4-2.9 1.2L39 13.7c-0.4 0.4-0.9 0.5-1.4 0.5l-11.3-1.8c-0.2 0-0.4-0.1-0.7-0.1-2 0-3.7 1.5-4.1 3.5l-1.8 11.3c-0.1 0.5-0.4 1-0.9 1.2L8.7 33.5c-1 0.5-1.7 1.3-2 2.4-0.3 1-0.3 2.2 0.2 3.1l5.2 10.2c0.2 0.5 0.2 1 0 1.5L6.9 61c-0.5 1-0.6 2.1-0.2 3.1 0.3 1 1.1 1.9 2 2.4l10.2 5.2c0.5 0.2 0.8 0.7 0.9 1.2l1.8 11.3c0.3 2 2 3.5 4.1 3.5 0.2 0 0.4 0 0.7-0.1l11.3-1.8c0.5-0.1 1.1 0.1 1.4 0.5l8.1 8.1c0.8 0.8 1.8 1.2 2.9 1.2C51.1 95.6 52.1 95.2 52.9 94.4zM48.8 92.7l-8.1-8.1c-0.8-0.8-1.8-1.2-2.9-1.2-0.2 0-0.4 0-0.6 0.1l-11.3 1.8c-0.9 0.1-1.8-0.5-1.9-1.4l-1.8-11.3c-0.2-1.3-1-2.4-2.2-3L9.8 64.3c-0.4-0.2-0.7-0.5-0.8-1-0.1-0.4-0.1-0.9 0.1-1.3l5.2-10.2c0.6-1.2 0.6-2.6 0-3.7L9.1 37.9c-0.2-0.4-0.2-0.8-0.1-1.3 0.1-0.4 0.4-0.8 0.8-1L20 30.5c1.2-0.6 2-1.7 2.2-3L24 16.2c0.1-0.9 1-1.5 1.9-1.4l11.3 1.8c1.3 0.2 2.6-0.2 3.6-1.2l8.1-8.1c0.6-0.6 1.7-0.6 2.3 0l8.1 8.1c0.9 0.9 2.3 1.4 3.6 1.2l11.3-1.8c0.9-0.1 1.8 0.5 1.9 1.4l1.8 11.3c0.2 1.3 1 2.4 2.2 3l10.2 5.2c0.4 0.2 0.7 0.5 0.8 1 0.1 0.4 0.1 0.9-0.1 1.3l-5.2 10.2c-0.6 1.2-0.6 2.6 0 3.7l5.2 10.2c0.2 0.4 0.2 0.8 0.1 1.3-0.1 0.4-0.4 0.8-0.8 1L80 69.5c-1.2 0.6-2 1.7-2.2 3L76 83.8c-0.1 0.9-1 1.5-1.9 1.4l-11.3-1.8c-1.3-0.2-2.6 0.2-3.6 1.2l-8.1 8.1C50.5 93.3 49.5 93.3 48.8 92.7zM68.4 61.1l2.4-15.5c0-0.1 0-0.1 0-0.2 0-3.4-2.7-6.1-6.1-6.1h-9v-6.4c0-2.8-0.8-4.9-2.5-6.1C50.7 24.9 47.1 26 47 26c-0.5 0.2-0.9 0.6-0.9 1.2v7.4c0 5.7-6.7 7.7-6.9 7.7-0.2 0.1-0.4 0.2-0.6 0.4-0.6-0.6-1.4-0.9-2.2-0.9h-5.2c-1.7 0-3.1 1.4-3.1 3.1v18.3c0 1.7 1.4 3.1 3.1 3.1h5.2c1 0 1.9-0.5 2.4-1.2 1.1 1.1 2.6 1.8 4.3 1.8h18.1C65.3 67 68 64.9 68.4 61.1zM37 63.2c0 0.4-0.3 0.7-0.7 0.7h-5.2c-0.4 0-0.7-0.3-0.7-0.7V44.9c0-0.4 0.3-0.7 0.7-0.7h5.2c0.4 0 0.7 0.3 0.7 0.7V63.2zM39.5 60.9v-16c0-0.1 0-0.1 0-0.2 0.1 0 0.3 0 0.4 0 0.4-0.1 8.7-2.5 8.7-10.1v-6.4c0.9-0.1 2.3-0.2 3.3 0.6 1 0.7 1.5 2.1 1.5 4.1v7.7c0 0.7 0.5 1.2 1.2 1.2h10.2c2 0 3.6 1.6 3.6 3.5L66 60.8c-0.3 2.5-1.9 3.8-4.8 3.8H43.1C41.1 64.6 39.5 62.9 39.5 60.9z" fill="#ceb700" data-fill-palette-color="accent"></path></svg></g></svg></g></svg></g><defs></defs></svg><rect width="395.52" height="149.68311461476128" fill="none" stroke="none" visibility="hidden"></rect></g></svg></g></svg>